<svg width="252" height="42" viewBox="0 0 252 42" fill="none" xmlns="http://www.w3.org/2000/svg">
<path d="M28.2461 1.40625V28.8047C28.2461 31.3385 27.6536 33.5716 26.4688 35.5039C25.2839 37.418 23.6159 38.9036 21.4648 39.9609C19.332 41.0182 16.8802 41.5469 14.1094 41.5469C11.5938 41.5469 9.34245 41.1094 7.35547 40.2344C5.36849 39.3411 3.79167 37.9831 2.625 36.1602C1.47656 34.3372 0.902344 32.0768 0.902344 29.3789H10.2266C10.2448 30.3815 10.4362 31.2474 10.8008 31.9766C11.1836 32.6875 11.694 33.2344 12.332 33.6172C12.9883 33.9818 13.763 34.1641 14.6562 34.1641C16.0781 34.1641 17.1536 33.7174 17.8828 32.8242C18.612 31.9128 18.9948 30.5729 19.0312 28.8047V1.40625H28.2461ZM71.4492 21.2031C71.4492 25.4323 70.6289 29.0781 68.9883 32.1406C67.3477 35.2031 65.1055 37.5365 62.2617 39.1406C59.418 40.7448 56.2005 41.5469 52.6094 41.5469C49.0365 41.5469 45.819 40.7448 42.957 39.1406C40.1133 37.5365 37.8711 35.194 36.2305 32.1133C34.6081 29.0326 33.7969 25.3958 33.7969 21.2031C33.7969 16.9375 34.6081 13.2734 36.2305 10.2109C37.8711 7.14844 40.1133 4.82422 42.957 3.23828C45.819 1.65234 49.0365 0.859375 52.6094 0.859375C56.2005 0.859375 59.418 1.65234 62.2617 3.23828C65.1055 4.82422 67.3477 7.14844 68.9883 10.2109C70.6289 13.2734 71.4492 16.9375 71.4492 21.2031ZM61.9336 21.2031C61.9336 18.5964 61.5599 16.3906 60.8125 14.5859C60.0833 12.763 59.0169 11.3867 57.6133 10.457C56.2279 9.50911 54.5599 9.03516 52.6094 9.03516C50.6771 9.03516 49.0091 9.50911 47.6055 10.457C46.2201 11.3867 45.1536 12.763 44.4062 14.5859C43.6771 16.3906 43.3125 18.5964 43.3125 21.2031C43.3125 23.8099 43.6771 26.0247 44.4062 27.8477C45.1536 29.6523 46.2201 31.0286 47.6055 31.9766C49.0091 32.9062 50.6771 33.3711 52.6094 33.3711C54.5599 33.3711 56.2279 32.9062 57.6133 31.9766C59.0169 31.0286 60.0833 29.6523 60.8125 27.8477C61.5599 26.0247 61.9336 23.8099 61.9336 21.2031ZM76.9453 1.40625H93.3242C96.2044 1.40625 98.6471 1.82552 100.652 2.66406C102.676 3.48438 104.198 4.65104 105.219 6.16406C106.24 7.65885 106.75 9.41797 106.75 11.4414C106.75 12.918 106.44 14.2487 105.82 15.4336C105.201 16.6185 104.335 17.6029 103.223 18.3867C102.129 19.1706 100.853 19.7083 99.3945 20V20.3828C100.999 20.4557 102.484 20.8932 103.852 21.6953C105.219 22.4974 106.303 23.6094 107.105 25.0312C107.908 26.4531 108.309 28.0938 108.309 29.9531C108.309 32.0859 107.762 33.9818 106.668 35.6406C105.592 37.2995 104.016 38.612 101.938 39.5781C99.8776 40.526 97.4167 41 94.5547 41H76.9453V1.40625ZM92.3398 33.4531C93.7435 33.4531 94.901 33.2708 95.8125 32.9062C96.7422 32.5234 97.4258 31.9948 97.8633 31.3203C98.319 30.6458 98.5469 29.8346 98.5469 28.8867C98.5469 27.8659 98.3008 26.9727 97.8086 26.207C97.3346 25.4232 96.6419 24.8307 95.7305 24.4297C94.8372 24.0104 93.7708 23.8008 92.5312 23.8008H86.2422V33.4531H92.3398ZM91.7383 17.7578C92.8138 17.7578 93.7708 17.5755 94.6094 17.2109C95.4479 16.8281 96.0951 16.2995 96.5508 15.625C97.0247 14.9505 97.2617 14.1393 97.2617 13.1914C97.2617 12.2982 97.043 11.5234 96.6055 10.8672C96.1862 10.2109 95.5755 9.70964 94.7734 9.36328C93.9714 9.01693 93.0143 8.84375 91.9023 8.84375H86.2422V17.7578H91.7383ZM164.609 41L178.008 1.40625H190.34L203.766 41H193.758L184.352 11.1953H184.023L174.617 41H164.609ZM194.852 25.3867V32.5234H173.387V25.3867H194.852ZM219.488 1.40625L229.742 26.3164H230.207L240.406 1.40625H251.973V41H242.895V16.3633H242.566L232.887 40.7539H227.035L217.383 16.2812H217.055V41H207.977V1.40625H219.488Z" fill="black"/>
<path d="M118.043 36.3516C117.15 36.3516 116.32 36.1237 115.555 35.668C114.789 35.2122 114.188 34.6107 113.75 33.8633C113.312 33.0977 113.094 32.2682 113.094 31.375C113.094 30.5182 113.312 29.7161 113.75 28.9688C114.188 28.2031 114.789 27.6016 115.555 27.1641C116.32 26.7266 117.15 26.5078 118.043 26.5078C118.918 26.5078 119.729 26.7266 120.477 27.1641C121.224 27.6016 121.826 28.2031 122.281 28.9688C122.755 29.7161 122.992 30.5182 122.992 31.375C122.992 32.2682 122.755 33.0977 122.281 33.8633C121.826 34.6107 121.224 35.2122 120.477 35.668C119.729 36.1237 118.918 36.3516 118.043 36.3516ZM118.043 15.8984C117.15 15.8984 116.32 15.6706 115.555 15.2148C114.789 14.7591 114.188 14.1576 113.75 13.4102C113.312 12.6445 113.094 11.8151 113.094 10.9219C113.094 10.0651 113.312 9.26302 113.75 8.51562C114.188 7.75 114.789 7.14844 115.555 6.71094C116.32 6.27344 117.15 6.05469 118.043 6.05469C118.918 6.05469 119.729 6.27344 120.477 6.71094C121.224 7.14844 121.826 7.75 122.281 8.51562C122.755 9.26302 122.992 10.0651 122.992 10.9219C122.992 11.8151 122.755 12.6445 122.281 13.4102C121.826 14.1576 121.224 14.7591 120.477 15.2148C119.729 15.6706 118.918 15.8984 118.043 15.8984ZM133.191 41V33.043H143.363C145.715 33.043 147.656 32.6419 149.188 31.8398C150.737 31.0378 151.904 29.7617 152.688 28.0117C153.49 26.2617 153.891 23.9922 153.891 21.2031C153.891 18.3776 153.49 16.0898 152.688 14.3398C151.904 12.5898 150.728 11.3229 149.16 10.5391C147.611 9.75521 145.651 9.36328 143.281 9.36328H133.027V1.40625H143.719C147.747 1.40625 151.22 2.19922 154.137 3.78516C157.072 5.37109 159.323 7.64974 160.891 10.6211C162.458 13.5924 163.242 17.1198 163.242 21.2031C163.242 25.2865 162.458 28.8138 160.891 31.7852C159.323 34.7565 157.072 37.0352 154.137 38.6211C151.202 40.207 147.729 41 143.719 41H133.191ZM138.523 41H129.227V1.40625H138.523V41Z" fill="#6076FF"/>
</svg>
