<svg width="189" height="32" viewBox="0 0 189 32" fill="none" xmlns="http://www.w3.org/2000/svg">
<path d="M21.1846 1.30469V21.8535C21.1846 23.7539 20.7402 25.4287 19.8516 26.8779C18.9629 28.3135 17.7119 29.4277 16.0986 30.2207C14.499 31.0137 12.6602 31.4102 10.582 31.4102C8.69531 31.4102 7.00684 31.082 5.5166 30.4258C4.02637 29.7559 2.84375 28.7373 1.96875 27.3701C1.10742 26.0029 0.676758 24.3076 0.676758 22.2842H7.66992C7.68359 23.0361 7.82715 23.6855 8.10059 24.2324C8.3877 24.7656 8.77051 25.1758 9.24902 25.4629C9.74121 25.7363 10.3223 25.873 10.9922 25.873C12.0586 25.873 12.8652 25.5381 13.4121 24.8682C13.959 24.1846 14.2461 23.1797 14.2734 21.8535V1.30469H21.1846ZM53.5869 16.1523C53.5869 19.3242 52.9717 22.0586 51.7412 24.3555C50.5107 26.6523 48.8291 28.4023 46.6963 29.6055C44.5635 30.8086 42.1504 31.4102 39.457 31.4102C36.7773 31.4102 34.3643 30.8086 32.2178 29.6055C30.085 28.4023 28.4033 26.6455 27.1729 24.335C25.9561 22.0244 25.3477 19.2969 25.3477 16.1523C25.3477 12.9531 25.9561 10.2051 27.1729 7.9082C28.4033 5.61133 30.085 3.86816 32.2178 2.67871C34.3643 1.48926 36.7773 0.894531 39.457 0.894531C42.1504 0.894531 44.5635 1.48926 46.6963 2.67871C48.8291 3.86816 50.5107 5.61133 51.7412 7.9082C52.9717 10.2051 53.5869 12.9531 53.5869 16.1523ZM46.4502 16.1523C46.4502 14.1973 46.1699 12.543 45.6094 11.1895C45.0625 9.82227 44.2627 8.79004 43.21 8.09277C42.1709 7.38184 40.9199 7.02637 39.457 7.02637C38.0078 7.02637 36.7568 7.38184 35.7041 8.09277C34.665 8.79004 33.8652 9.82227 33.3047 11.1895C32.7578 12.543 32.4844 14.1973 32.4844 16.1523C32.4844 18.1074 32.7578 19.7686 33.3047 21.1357C33.8652 22.4893 34.665 23.5215 35.7041 24.2324C36.7568 24.9297 38.0078 25.2783 39.457 25.2783C40.9199 25.2783 42.1709 24.9297 43.21 24.2324C44.2627 23.5215 45.0625 22.4893 45.6094 21.1357C46.1699 19.7686 46.4502 18.1074 46.4502 16.1523ZM57.709 1.30469H69.9932C72.1533 1.30469 73.9854 1.61914 75.4893 2.24805C77.0068 2.86328 78.1484 3.73828 78.9141 4.87305C79.6797 5.99414 80.0625 7.31348 80.0625 8.83105C80.0625 9.93848 79.8301 10.9365 79.3652 11.8252C78.9004 12.7139 78.251 13.4521 77.417 14.04C76.5967 14.6279 75.6396 15.0312 74.5459 15.25V15.5371C75.749 15.5918 76.8633 15.9199 77.8887 16.5215C78.9141 17.123 79.7275 17.957 80.3291 19.0234C80.9307 20.0898 81.2314 21.3203 81.2314 22.7148C81.2314 24.3145 80.8213 25.7363 80.001 26.9805C79.1943 28.2246 78.0117 29.209 76.4531 29.9336C74.9082 30.6445 73.0625 31 70.916 31H57.709V1.30469ZM69.2549 25.3398C70.3076 25.3398 71.1758 25.2031 71.8594 24.9297C72.5566 24.6426 73.0693 24.2461 73.3975 23.7402C73.7393 23.2344 73.9102 22.626 73.9102 21.915C73.9102 21.1494 73.7256 20.4795 73.3564 19.9053C73.001 19.3174 72.4814 18.873 71.7979 18.5723C71.1279 18.2578 70.3281 18.1006 69.3984 18.1006H64.6816V25.3398H69.2549ZM68.8037 13.5684C69.6104 13.5684 70.3281 13.4316 70.957 13.1582C71.5859 12.8711 72.0713 12.4746 72.4131 11.9688C72.7686 11.4629 72.9463 10.8545 72.9463 10.1436C72.9463 9.47363 72.7822 8.89258 72.4541 8.40039C72.1396 7.9082 71.6816 7.53223 71.0801 7.27246C70.4785 7.0127 69.7607 6.88281 68.9268 6.88281H64.6816V13.5684H68.8037ZM123.457 31L133.506 1.30469H142.755L152.824 31H145.318L138.264 8.64648H138.018L130.963 31H123.457ZM146.139 19.29V24.6426H130.04V19.29H146.139ZM164.616 1.30469L172.307 19.9873H172.655L180.305 1.30469H188.979V31H182.171V12.5225H181.925L174.665 30.8154H170.276L163.037 12.4609H162.791V31H155.982V1.30469H164.616Z" fill="black"/>
<path d="M88.5322 27.5137C87.8623 27.5137 87.2402 27.3428 86.666 27.001C86.0918 26.6592 85.6406 26.208 85.3125 25.6475C84.9844 25.0732 84.8203 24.4512 84.8203 23.7812C84.8203 23.1387 84.9844 22.5371 85.3125 21.9766C85.6406 21.4023 86.0918 20.9512 86.666 20.623C87.2402 20.2949 87.8623 20.1309 88.5322 20.1309C89.1885 20.1309 89.7969 20.2949 90.3574 20.623C90.918 20.9512 91.3691 21.4023 91.7109 21.9766C92.0664 22.5371 92.2441 23.1387 92.2441 23.7812C92.2441 24.4512 92.0664 25.0732 91.7109 25.6475C91.3691 26.208 90.918 26.6592 90.3574 27.001C89.7969 27.3428 89.1885 27.5137 88.5322 27.5137ZM88.5322 12.1738C87.8623 12.1738 87.2402 12.0029 86.666 11.6611C86.0918 11.3193 85.6406 10.8682 85.3125 10.3076C84.9844 9.7334 84.8203 9.11133 84.8203 8.44141C84.8203 7.79883 84.9844 7.19727 85.3125 6.63672C85.6406 6.0625 86.0918 5.61133 86.666 5.2832C87.2402 4.95508 87.8623 4.79102 88.5322 4.79102C89.1885 4.79102 89.7969 4.95508 90.3574 5.2832C90.918 5.61133 91.3691 6.0625 91.7109 6.63672C92.0664 7.19727 92.2441 7.79883 92.2441 8.44141C92.2441 9.11133 92.0664 9.7334 91.7109 10.3076C91.3691 10.8682 90.918 11.3193 90.3574 11.6611C89.7969 12.0029 89.1885 12.1738 88.5322 12.1738ZM99.8936 31V25.0322H107.522C109.286 25.0322 110.742 24.7314 111.891 24.1299C113.053 23.5283 113.928 22.5713 114.516 21.2588C115.117 19.9463 115.418 18.2441 115.418 16.1523C115.418 14.0332 115.117 12.3174 114.516 11.0049C113.928 9.69238 113.046 8.74219 111.87 8.1543C110.708 7.56641 109.238 7.27246 107.461 7.27246H99.7705V1.30469H107.789C110.811 1.30469 113.415 1.89941 115.603 3.08887C117.804 4.27832 119.492 5.9873 120.668 8.21582C121.844 10.4443 122.432 13.0898 122.432 16.1523C122.432 19.2148 121.844 21.8604 120.668 24.0889C119.492 26.3174 117.804 28.0264 115.603 29.2158C113.401 30.4053 110.797 31 107.789 31H99.8936ZM103.893 31H96.9199V1.30469H103.893V31Z" fill="#6076FF"/>
</svg>
