<svg width="25" height="24" viewBox="0 0 25 24" fill="none" xmlns="http://www.w3.org/2000/svg">
<mask id="mask0_140_2286" style="mask-type:alpha" maskUnits="userSpaceOnUse" x="0" y="0" width="25" height="24">
<rect x="0.5" width="24" height="24" fill="#D9D9D9"/>
</mask>
<g mask="url(#mask0_140_2286)">
<path d="M12.5 12C11.4 12 10.4584 11.6083 9.67504 10.825C8.89171 10.0417 8.50004 9.1 8.50004 8C8.50004 6.9 8.89171 5.95833 9.67504 5.175C10.4584 4.39167 11.4 4 12.5 4C13.6 4 14.5417 4.39167 15.325 5.175C16.1084 5.95833 16.5 6.9 16.5 8C16.5 9.1 16.1084 10.0417 15.325 10.825C14.5417 11.6083 13.6 12 12.5 12ZM4.50004 20V17.2C4.50004 16.6333 4.64587 16.1125 4.93754 15.6375C5.2292 15.1625 5.6167 14.8 6.10004 14.55C7.13337 14.0333 8.18337 13.6458 9.25004 13.3875C10.3167 13.1292 11.4 13 12.5 13C13.6 13 14.6834 13.1292 15.75 13.3875C16.8167 13.6458 17.8667 14.0333 18.9 14.55C19.3834 14.8 19.7709 15.1625 20.0625 15.6375C20.3542 16.1125 20.5 16.6333 20.5 17.2V20H4.50004ZM6.50004 18H18.5V17.2C18.5 17.0167 18.4542 16.85 18.3625 16.7C18.2709 16.55 18.15 16.4333 18 16.35C17.1 15.9 16.1917 15.5625 15.275 15.3375C14.3584 15.1125 13.4334 15 12.5 15C11.5667 15 10.6417 15.1125 9.72504 15.3375C8.80837 15.5625 7.90004 15.9 7.00004 16.35C6.85004 16.4333 6.7292 16.55 6.63754 16.7C6.54587 16.85 6.50004 17.0167 6.50004 17.2V18ZM12.5 10C13.05 10 13.5209 9.80417 13.9125 9.4125C14.3042 9.02083 14.5 8.55 14.5 8C14.5 7.45 14.3042 6.97917 13.9125 6.5875C13.5209 6.19583 13.05 6 12.5 6C11.95 6 11.4792 6.19583 11.0875 6.5875C10.6959 6.97917 10.5 7.45 10.5 8C10.5 8.55 10.6959 9.02083 11.0875 9.4125C11.4792 9.80417 11.95 10 12.5 10Z" fill="#787474"/>
<path d="M6.50004 18H18.5V17.2C18.5 17.0167 18.4542 16.85 18.3625 16.7C18.2709 16.55 18.15 16.4333 18 16.35C17.1 15.9 16.1917 15.5625 15.275 15.3375C14.3584 15.1125 13.4334 15 12.5 15C11.5667 15 10.6417 15.1125 9.72504 15.3375C8.80837 15.5625 7.90004 15.9 7.00004 16.35C6.85004 16.4333 6.7292 16.55 6.63754 16.7C6.54587 16.85 6.50004 17.0167 6.50004 17.2V18Z" fill="#787474"/>
<path d="M12.5 10C13.05 10 13.5209 9.80417 13.9125 9.4125C14.3042 9.02083 14.5 8.55 14.5 8C14.5 7.45 14.3042 6.97917 13.9125 6.5875C13.5209 6.19583 13.05 6 12.5 6C11.95 6 11.4792 6.19583 11.0875 6.5875C10.6959 6.97917 10.5 7.45 10.5 8C10.5 8.55 10.6959 9.02083 11.0875 9.4125C11.4792 9.80417 11.95 10 12.5 10Z" fill="#787474"/>
</g>
</svg>
