<svg width="128" height="121" viewBox="0 0 128 121" fill="none" xmlns="http://www.w3.org/2000/svg">
<path d="M82.0072 54.5121C82.0072 58.6493 81.1923 62.7459 79.6091 66.5681C78.0259 70.3903 75.7053 73.8633 72.7799 76.7887C69.8545 79.7141 66.3816 82.0347 62.5593 83.6179C58.7371 85.2011 54.6405 86.016 50.5033 86.016C46.3662 86.016 42.2696 85.2011 38.4473 83.6179C34.6251 82.0347 31.1522 79.7141 28.2268 76.7887C25.3014 73.8633 22.9808 70.3903 21.3976 66.5681C19.8144 62.7459 18.9995 58.6493 18.9995 54.5121C18.9995 46.1568 22.3187 38.1437 28.2268 32.2356C34.1349 26.3274 42.148 23.0083 50.5033 23.0083C58.8587 23.0083 66.8718 26.3274 72.7799 32.2356C78.688 38.1437 82.0072 46.1568 82.0072 54.5121Z" fill="#64B5F6"/>
<path d="M73.7672 85.1969C65.9922 91.0914 56.2694 93.8146 46.5638 92.816C36.8582 91.8174 27.8936 87.1715 21.4818 79.8173C15.07 72.463 11.6891 62.949 12.0225 53.1978C12.3559 43.4467 16.3787 34.1857 23.2778 27.2866C30.1769 20.3874 39.4379 16.3647 49.189 16.0313C58.9402 15.6979 68.4543 19.0788 75.8085 25.4906C83.1627 31.9024 87.8086 40.867 88.8072 50.5726C89.8058 60.2782 87.0826 70.001 81.1881 77.7759L101.47 98.0574C101.985 98.5381 102.399 99.1178 102.686 99.7618C102.973 100.406 103.127 101.101 103.14 101.806C103.152 102.511 103.023 103.212 102.759 103.865C102.494 104.519 102.101 105.113 101.603 105.612C101.104 106.11 100.51 106.503 99.8565 106.767C99.2027 107.031 98.5024 107.161 97.7974 107.149C97.0924 107.136 96.3971 106.982 95.7531 106.695C95.109 106.408 94.5293 105.994 94.0486 105.478L73.7672 85.1969ZM78.5067 54.5121C78.5067 47.0852 75.5564 39.9624 70.3047 34.7107C65.0531 29.4591 57.9303 26.5087 50.5033 26.5087C43.0764 26.5087 35.9536 29.4591 30.7019 34.7107C25.4503 39.9624 22.4999 47.0852 22.4999 54.5121C22.4999 61.9391 25.4503 69.0619 30.7019 74.3135C35.9536 79.5652 43.0764 82.5155 50.5033 82.5155C57.9303 82.5155 65.0531 79.5652 70.3047 74.3135C75.5564 69.0619 78.5067 61.9391 78.5067 54.5121Z" fill="#4F4A4A"/>
<path d="M115.492 66.5048L110.137 64.7686C108.507 64.2265 107.026 63.3122 105.811 62.0983C104.595 60.8843 103.68 59.4041 103.136 57.7748L101.4 52.4261C101.255 52.0126 100.985 51.6543 100.627 51.4009C100.27 51.1474 99.8427 51.0112 99.4045 51.0112C98.9663 51.0112 98.5389 51.1474 98.1815 51.4009C97.824 51.6543 97.5542 52.0126 97.4092 52.4261L95.659 57.7748C95.1272 59.3914 94.2296 60.8635 93.036 62.0765C91.8424 63.2896 90.385 64.2108 88.7772 64.7686L83.4215 66.5048C83.0112 66.653 82.6565 66.924 82.4057 67.2811C82.155 67.6381 82.0205 68.0638 82.0205 68.5001C82.0205 68.9364 82.155 69.362 82.4057 69.7191C82.6565 70.0761 83.0112 70.3472 83.4215 70.4953L88.7772 72.2385C90.4093 72.7828 91.8919 73.7003 93.1072 74.918C94.3225 76.1358 95.237 77.6202 95.778 79.2534L97.5142 84.602C97.6592 85.0156 97.929 85.3738 98.2865 85.6273C98.6439 85.8808 99.0713 86.017 99.5095 86.017C99.9477 86.017 100.375 85.8808 100.732 85.6273C101.09 85.3738 101.36 85.0156 101.505 84.602L103.248 79.2534C103.791 77.6249 104.706 76.1451 105.92 74.9312C107.133 73.7173 108.613 72.8026 110.242 72.2595L115.597 70.5233C116.008 70.3752 116.363 70.1041 116.613 69.7471C116.864 69.39 116.998 68.9644 116.998 68.5281C116.998 68.0918 116.864 67.6661 116.613 67.3091C116.363 66.952 116.008 66.681 115.597 66.5329L115.492 66.5048Z" fill="url(#paint0_radial_140_2471)"/>
<path d="M81.1531 10.981L83.5894 18.479C84.3449 20.7595 85.6235 22.8317 87.3229 24.5299C89.0224 26.2281 91.0955 27.5052 93.3766 28.2591L100.882 30.6954L101.029 30.7374C101.607 30.941 102.108 31.3191 102.462 31.8194C102.816 32.3197 103.007 32.9177 103.007 33.5308C103.007 34.1439 102.816 34.7418 102.462 35.2422C102.108 35.7425 101.607 36.1206 101.029 36.3241L93.5306 38.7604C91.2482 39.5134 89.1737 40.7901 87.473 42.4883C85.7723 44.1866 84.4927 46.2593 83.7364 48.5406L81.3001 56.0315C81.0966 56.6098 80.7185 57.1107 80.2182 57.465C79.7178 57.8193 79.1199 58.0096 78.5068 58.0096C77.8937 58.0096 77.2957 57.8193 76.7954 57.465C76.2951 57.1107 75.917 56.6098 75.7134 56.0315L73.2772 48.5406C72.5265 46.2515 71.2494 44.1704 69.5484 42.4645C67.8474 40.7587 65.7699 39.4756 63.483 38.7184L55.978 36.2821C55.3997 36.0785 54.8989 35.7005 54.5446 35.2002C54.1903 34.6998 54 34.1019 54 33.4888C54 32.8757 54.1903 32.2777 54.5446 31.7774C54.8989 31.2771 55.3997 30.899 55.978 30.6954L63.483 28.2591C65.7369 27.4858 67.7806 26.2 69.4534 24.5029C71.1262 22.8059 72.3824 20.7438 73.1231 18.479L75.5594 10.988C75.7615 10.4073 76.1394 9.9039 76.6406 9.54765C77.1417 9.1914 77.7414 9 78.3563 9C78.9712 9 79.5708 9.1914 80.072 9.54765C80.5732 9.9039 80.951 10.4003 81.1531 10.981Z" fill="url(#paint1_radial_140_2471)"/>
<defs>
<radialGradient id="paint0_radial_140_2471" cx="0" cy="0" r="1" gradientUnits="userSpaceOnUse" gradientTransform="translate(21.625 -80.695) rotate(63.379) scale(200.32 155.985)">
<stop offset="0.718" stop-color="#FFCD0F"/>
<stop offset="0.991" stop-color="#E67505"/>
</radialGradient>
<radialGradient id="paint1_radial_140_2471" cx="0" cy="0" r="1" gradientUnits="userSpaceOnUse" gradientTransform="translate(-6.82233 -114.384) rotate(61.2) scale(210.712 164.076)">
<stop offset="0.698" stop-color="#FFCD0F"/>
<stop offset="0.991" stop-color="#E67505"/>
</radialGradient>
</defs>
</svg>
