<svg width="24" height="24" viewBox="0 0 24 24" fill="none" xmlns="http://www.w3.org/2000/svg">
<path d="M13.8 18.4C17.1939 18.4 18.8913 18.4 19.9452 17.3452C20.9991 16.2904 21 14.5939 21 11.2C21 7.8061 21 6.1087 19.9452 5.0548C18.8904 4.0009 17.1939 4 13.8 4H10.2C6.8061 4 5.1087 4 4.0548 5.0548C3.0009 6.1096 3 7.8061 3 11.2C3 14.5939 3 16.2913 4.0548 17.3452C4.6425 17.9338 5.43 18.1939 6.6 18.3082" stroke="#787474" stroke-width="2" stroke-linecap="round" stroke-linejoin="round"/>
<path d="M10.2 8.93558C10.65 8.04458 11.1 7.59998 12 7.59998C13.1214 7.59998 13.8 8.49008 13.8 9.38018C13.8 10.2703 13.35 10.3099 12 11.2V12.1M12 14.35V14.8M13.8 18.4C12.6876 18.4 11.4618 18.85 10.3431 19.4305C8.54491 20.3638 7.64581 20.8309 7.20301 20.533C6.76021 20.2351 6.84391 19.3135 7.01221 17.4694L7.05001 17.05" stroke="#787474" stroke-width="2" stroke-linecap="round"/>
</svg>
