<svg width="80" height="80" viewBox="0 0 80 80" fill="none" xmlns="http://www.w3.org/2000/svg">
<rect width="80" height="80" fill="#F3F3F3"/>
<path d="M59.4744 27.577L41.4744 21.577C41.1665 21.4743 40.8335 21.4743 40.5256 21.577L22.5256 27.577C22.2269 27.6766 21.9672 27.8676 21.7831 28.123C21.599 28.3784 21.5 28.6853 21.5 29.0001V44.0001C21.5 44.3979 21.658 44.7795 21.9393 45.0608C22.2206 45.3421 22.6022 45.5001 23 45.5001C23.3978 45.5001 23.7794 45.3421 24.0607 45.0608C24.342 44.7795 24.5 44.3979 24.5 44.0001V31.0814L30.7981 33.1795C29.1248 35.8829 28.5927 39.1398 29.3186 42.2352C30.0446 45.3306 31.9692 48.0113 34.67 49.6889C31.295 51.0126 28.3775 53.407 26.2437 56.6807C26.1328 56.8457 26.0557 57.031 26.017 57.226C25.9783 57.421 25.9787 57.6217 26.0183 57.8165C26.0578 58.0113 26.1357 58.1964 26.2474 58.3608C26.3591 58.5253 26.5023 58.6659 26.6688 58.7745C26.8353 58.8831 27.0217 58.9575 27.2173 58.9934C27.4128 59.0293 27.6135 59.026 27.8077 58.9837C28.0019 58.9413 28.1858 58.8608 28.3487 58.7468C28.5115 58.6328 28.65 58.4875 28.7563 58.3195C31.5819 53.9845 36.0444 51.5001 41 51.5001C45.9556 51.5001 50.4181 53.9845 53.2438 58.3195C53.4638 58.6465 53.8036 58.8737 54.1898 58.9522C54.5761 59.0306 54.9776 58.9538 55.3077 58.7385C55.6378 58.5232 55.8699 58.1866 55.9539 57.8016C56.0378 57.4165 55.9668 57.0139 55.7562 56.6807C53.6225 53.407 50.6937 51.0126 47.33 49.6889C50.0282 48.0114 51.951 45.3324 52.6768 42.2393C53.4027 39.1462 52.8722 35.8915 51.2019 33.1889L59.4744 30.4326C59.7731 30.3331 60.033 30.1421 60.2171 29.8867C60.4012 29.6313 60.5003 29.3244 60.5003 29.0095C60.5003 28.6946 60.4012 28.3877 60.2171 28.1323C60.033 27.8769 59.7731 27.6859 59.4744 27.5864V27.577ZM50 39.5001C50.0004 40.923 49.6634 42.3256 49.0168 43.5931C48.3701 44.8605 47.4322 45.9565 46.2799 46.7912C45.1276 47.6259 43.7938 48.1756 42.388 48.395C40.9821 48.6144 39.5443 48.4974 38.1925 48.0536C36.8406 47.6097 35.6133 46.8516 34.6111 45.8416C33.609 44.8315 32.8606 43.5983 32.4273 42.243C31.9941 40.8877 31.8884 39.449 32.1188 38.0449C32.3493 36.6409 32.9094 35.3114 33.7531 34.1657L40.5256 36.4157C40.8335 36.5184 41.1665 36.5184 41.4744 36.4157L48.2469 34.1657C49.3864 35.7108 50.0008 37.5803 50 39.5001ZM41 33.4195L27.7437 29.0001L41 24.5807L54.2562 29.0001L41 33.4195Z" fill="#645F5F"/>
</svg>
