<svg width="12" height="13" viewBox="0 0 12 13" fill="none" xmlns="http://www.w3.org/2000/svg">
<g clip-path="url(#clip0_269_215)">
<path d="M7.6665 9.1665C7.6665 9.25491 7.63138 9.33969 7.56887 9.40221C7.50636 9.46472 7.42158 9.49984 7.33317 9.49984H2.6665C2.59317 9.49984 2.52317 9.5665 2.46317 9.60984L1.33317 10.4998V5.1665C1.33317 5.0781 1.36829 4.99331 1.4308 4.9308C1.49331 4.86829 1.5781 4.83317 1.6665 4.83317H2.95317V4.1665H1.6665C1.40129 4.1665 1.14693 4.27186 0.959397 4.4594C0.771861 4.64693 0.666504 4.90129 0.666504 5.1665V11.1665C0.667 11.2284 0.684726 11.289 0.717696 11.3414C0.750666 11.3938 0.797576 11.4359 0.853171 11.4632C0.90673 11.4875 0.965783 11.4973 1.02433 11.4914C1.08287 11.4856 1.13883 11.4643 1.1865 11.4298L2.90317 10.1665H7.38317C7.50951 10.1702 7.63526 10.148 7.75265 10.1012C7.87005 10.0543 7.97657 9.98387 8.06563 9.89418C8.15469 9.8045 8.22438 9.69748 8.2704 9.57977C8.31643 9.46205 8.33779 9.33614 8.33317 9.20984V8.83317H7.6665V9.1665Z" fill="#6076FF"/>
<path d="M10.3332 1.8335H4.6665C4.40129 1.8335 4.14693 1.93885 3.9594 2.12639C3.77186 2.31393 3.6665 2.56828 3.6665 2.8335V6.8335C3.6665 7.09871 3.77186 7.35307 3.9594 7.5406C4.14693 7.72814 4.40129 7.8335 4.6665 7.8335H9.18317L10.7765 9.07016C10.8239 9.10518 10.8797 9.12702 10.9382 9.13347C10.9968 9.13991 11.056 9.13072 11.1098 9.10683C11.1666 9.07981 11.2145 9.03731 11.2481 8.98424C11.2817 8.93116 11.2997 8.86966 11.2998 8.80683V2.8335C11.3 2.57396 11.1992 2.32453 11.0188 2.13792C10.8384 1.95131 10.5926 1.84215 10.3332 1.8335ZM10.6665 8.14683L9.49984 7.23683C9.44165 7.19167 9.37015 7.16706 9.2965 7.16683H4.6665C4.5781 7.16683 4.49331 7.13171 4.4308 7.0692C4.36829 7.00669 4.33317 6.9219 4.33317 6.8335V2.8335C4.33317 2.74509 4.36829 2.66031 4.4308 2.59779C4.49331 2.53528 4.5781 2.50016 4.6665 2.50016H10.3332C10.4223 2.50825 10.5053 2.54864 10.5667 2.61371C10.6281 2.67879 10.6636 2.76407 10.6665 2.8535V8.14683Z" fill="#6076FF"/>
</g>
<defs>
<clipPath id="clip0_269_215">
<rect width="12" height="12" fill="white" transform="translate(0 0.5)"/>
</clipPath>
</defs>
</svg>
